<svg xmlns="http://www.w3.org/2000/svg" xmlns:xlink="http://www.w3.org/1999/xlink" contentStyleType="text/css" data-diagram-type="STATE" height="751px" preserveAspectRatio="none" style="width:969px;height:751px;background:#FFFFFF;" version="1.1" viewBox="0 0 969 751" width="969px" zoomAndPan="magnify"><?plantuml 1.2026.4beta2?><defs/><g><g class="entity" data-qualified-name="STARTING" id="ent0002"><rect fill="#FFFFFF" height="64.2344" rx="12.5" ry="12.5" style="stroke:#000000;stroke-width:1;" width="192.4473" x="564.64" y="108"/><line style="stroke:#000000;stroke-width:1;" x1="564.64" x2="757.0873" y1="134.2969" y2="134.2969"/><text fill="#000000" font-family="Verdana" font-size="14" lengthAdjust="spacing" textLength="70.7451" x="625.4911" y="125.9951">STARTING</text><text fill="#000000" font-family="Verdana" font-size="12" lengthAdjust="spacing" textLength="172.4473" x="569.64" y="150.4355">Ожидание подтверждения</text><text fill="#000000" font-family="Verdana" font-size="12" lengthAdjust="spacing" textLength="128.7832" x="569.64" y="164.4043">от game-server-node</text></g><g class="entity" data-qualified-name="RUNNING" id="ent0003"><rect fill="#FFFFFF" height="64.2344" rx="12.5" ry="12.5" style="stroke:#000000;stroke-width:1;" width="190.9531" x="386.39" y="249.23"/><line style="stroke:#000000;stroke-width:1;" x1="386.39" x2="577.3431" y1="275.5269" y2="275.5269"/><text fill="#000000" font-family="Verdana" font-size="14" lengthAdjust="spacing" textLength="66.3701" x="448.6815" y="267.2251">RUNNING</text><text fill="#000000" font-family="Verdana" font-size="12" lengthAdjust="spacing" textLength="107.7129" x="391.39" y="291.6655">Инстанс активен</text><text fill="#000000" font-family="Verdana" font-size="12" lengthAdjust="spacing" textLength="170.9531" x="391.39" y="305.6343">и принимает подключения</text></g><g class="entity" data-qualified-name="STOPPING" id="ent0004"><rect fill="#FFFFFF" height="64.2344" rx="12.5" ry="12.5" style="stroke:#000000;stroke-width:1;" width="162.043" x="154.85" y="390.47"/><line style="stroke:#000000;stroke-width:1;" x1="154.85" x2="316.893" y1="416.7669" y2="416.7669"/><text fill="#000000" font-family="Verdana" font-size="14" lengthAdjust="spacing" textLength="70.793" x="200.475" y="408.4651">STOPPING</text><text fill="#000000" font-family="Verdana" font-size="12" lengthAdjust="spacing" textLength="113.0918" x="159.85" y="432.9055">Graceful shutdown</text><text fill="#000000" font-family="Verdana" font-size="12" lengthAdjust="spacing" textLength="142.043" x="159.85" y="446.8743">контейнера (SIGTERM)</text></g><g class="entity" data-qualified-name="STOPPED" id="ent0005"><rect fill="#FFFFFF" height="64.2344" rx="12.5" ry="12.5" style="stroke:#000000;stroke-width:1;" width="169.7949" x="341.97" y="531.7"/><line style="stroke:#000000;stroke-width:1;" x1="341.97" x2="511.7649" y1="557.9969" y2="557.9969"/><text fill="#000000" font-family="Verdana" font-size="14" lengthAdjust="spacing" textLength="64.9688" x="394.3831" y="549.6951">STOPPED</text><text fill="#000000" font-family="Verdana" font-size="12" lengthAdjust="spacing" textLength="149.7949" x="346.97" y="574.1355">Контейнер остановлен,</text><text fill="#000000" font-family="Verdana" font-size="12" lengthAdjust="spacing" textLength="147.9492" x="346.97" y="588.1043">но не удалён из Docker</text></g><g class="entity" data-qualified-name="CRASHED" id="ent0006"><rect fill="#FFFFFF" height="64.2344" rx="12.5" ry="12.5" style="stroke:#000000;stroke-width:1;" width="156.3359" x="319.7" y="672.94"/><line style="stroke:#000000;stroke-width:1;" x1="319.7" x2="476.0359" y1="699.2369" y2="699.2369"/><text fill="#000000" font-family="Verdana" font-size="14" lengthAdjust="spacing" textLength="68.1201" x="363.8079" y="690.9351">CRASHED</text><text fill="#000000" font-family="Verdana" font-size="12" lengthAdjust="spacing" textLength="102.5098" x="324.7" y="715.3755">Контейнер упал</text><text fill="#000000" font-family="Verdana" font-size="12" lengthAdjust="spacing" textLength="136.3359" x="324.7" y="729.3443">или нода недоступна</text></g><g class="start_entity" data-qualified-name=".start." data-source-line="24" id="ent0002"><ellipse cx="660.87" cy="21" fill="#FFFFFF" rx="10" ry="10" style="stroke:#000000;stroke-width:1;"/></g><g class="end_entity" data-qualified-name=".end." data-source-line="42" id="ent0019"><ellipse cx="621.87" cy="705.05" fill="none" rx="11" ry="11" style="stroke:#000000;stroke-width:1;"/><ellipse cx="621.87" cy="705.05" fill="#FFFFFF" rx="6" ry="6" style="stroke:#000000;stroke-width:1;"/></g><!--link *start* to STARTING--><g class="link" data-entity-1="ent0002" data-entity-2="ent0002" data-link-type="dependency" data-source-line="24" id="lnk3"><path d="M660.87,31.19 C660.87,47.42 660.87,75.87 660.87,101.5" fill="none" id="*start*-to-STARTING" style="stroke:#000000;stroke-width:1;"/><polygon fill="#000000" points="660.87,107.5,664.87,98.5,660.87,102.5,656.87,98.5,660.87,107.5" style="stroke:#000000;stroke-width:1;"/><text fill="#000000" font-family="Verdana" font-size="13" lengthAdjust="spacing" textLength="87.0518" x="661.87" y="74.0669">StartInstance</text></g><!--link STARTING to RUNNING--><g class="link" data-entity-1="ent0002" data-entity-2="ent0003" data-link-type="dependency" data-source-line="26" id="lnk4"><path d="M620.25,172.71 C590.95,195.5 556.3159,222.4361 527.0559,245.1961" fill="none" id="STARTING-to-RUNNING" style="stroke:#000000;stroke-width:1;"/><polygon fill="#000000" points="522.32,248.88,531.8798,246.5115,526.2666,245.8101,526.968,240.1969,522.32,248.88" style="stroke:#000000;stroke-width:1;"/><text fill="#000000" font-family="Verdana" font-size="13" lengthAdjust="spacing" textLength="138.3979" x="583.87" y="215.2969">Контейнер запущен</text></g><!--link STARTING to CRASHED--><g class="link" data-entity-1="ent0002" data-entity-2="ent0006" data-link-type="dependency" data-source-line="27" id="lnk5"><path d="M749.84,172.68 C794.77,194.87 839.87,229.76 839.87,280.35 C839.87,280.35 839.87,280.35 839.87,564.82 C839.87,602.48 609.25,658.2514 482.24,686.1814" fill="none" id="STARTING-to-CRASHED" style="stroke:#000000;stroke-width:1;"/><polygon fill="#000000" points="476.38,687.47,486.0291,689.4437,481.2633,686.3961,484.3109,681.6304,476.38,687.47" style="stroke:#000000;stroke-width:1;"/><text fill="#000000" font-family="Verdana" font-size="13" lengthAdjust="spacing" textLength="112.582" x="840.87" y="427.1469">Ошибка запуска</text></g><!--link RUNNING to STOPPING--><g class="link" data-entity-1="ent0003" data-entity-2="ent0004" data-link-type="dependency" data-source-line="29" id="lnk6"><path d="M386.3,299.95 C353.86,309.16 318.79,322.96 290.87,343.47 C274.42,355.54 264.1407,368.8835 254.7107,384.8535" fill="none" id="RUNNING-to-STOPPING" style="stroke:#000000;stroke-width:1;"/><polygon fill="#000000" points="251.66,390.02,259.6805,384.304,254.2023,385.7146,252.7918,380.2364,251.66,390.02" style="stroke:#000000;stroke-width:1;"/><text fill="#000000" font-family="Verdana" font-size="13" lengthAdjust="spacing" textLength="84.8491" x="291.87" y="356.5369">StopInstance</text></g><!--reverse link RUNNING to RUNNING--><g class="link" data-entity-1="ent0003" data-entity-2="ent0003" data-link-type="dependency" data-source-line="30" id="lnk8"><path d="M583.7271,268.953 C603.8371,270.273 612.34,274.14 612.34,281.35 C612.34,288.56 597.85,292.82 577.74,294.14" fill="none" id="RUNNING-backto-RUNNING" style="stroke:#000000;stroke-width:1;"/><polygon fill="#000000" points="577.74,268.56,586.4587,273.1409,582.7293,268.8875,586.9827,265.1581,577.74,268.56" style="stroke:#000000;stroke-width:1;"/><text fill="#000000" font-family="Verdana" font-size="13" lengthAdjust="spacing" textLength="102.6035" x="618.34" y="285.9169">RestartInstance</text></g><!--link RUNNING to CRASHED--><g class="link" data-entity-1="ent0003" data-entity-2="ent0006" data-link-type="dependency" data-source-line="31" id="lnk9"><path d="M386.32,291.33 C276.23,307.78 104.25,354.19 55.87,484.7 C11,605.74 199.1724,664.5665 313.4824,688.9865" fill="none" id="RUNNING-to-CRASHED" style="stroke:#000000;stroke-width:1;"/><polygon fill="#000000" points="319.35,690.24,311.3843,684.448,314.4603,689.1954,309.7129,692.2715,319.35,690.24" style="stroke:#000000;stroke-width:1;"/><text fill="#000000" font-family="Verdana" font-size="13" lengthAdjust="spacing" textLength="127.9941" x="56.87" y="497.7669">Нода offline / краш</text></g><!--reverse link RUNNING to CRASHED--><g class="link" data-entity-1="ent0003" data-entity-2="ent0006" data-link-type="dependency" data-source-line="39" id="lnk16"><path d="M508.5865,318.5533 C522.5165,339.1933 535.53,362.53 542.87,390.47 C554.36,434.21 532.77,580.7 528.87,595.94 C523.24,617.93 524.09,626.09 508.87,642.94 C498.39,654.52 485.19,664.38 471.58,672.59" fill="none" id="RUNNING-backto-CRASHED" style="stroke:#000000;stroke-width:1;"/><polygon fill="#000000" points="505.23,313.58,506.9492,323.2776,508.0271,317.7244,513.5803,318.8023,505.23,313.58" style="stroke:#000000;stroke-width:1;"/><text fill="#000000" font-family="Verdana" font-size="13" lengthAdjust="spacing" textLength="78.4951" x="544.87" y="497.7669">Auto-restart</text></g><!--link STOPPING to STOPPED--><g class="link" data-entity-1="ent0004" data-entity-2="ent0005" data-link-type="dependency" data-source-line="33" id="lnk10"><path d="M226.07,455.18 C223.29,470.58 223.24,488.57 232.87,501.7 C236.42,506.55 285.3941,521.8559 335.8141,536.6959" fill="none" id="STOPPING-to-STOPPED" style="stroke:#000000;stroke-width:1;"/><polygon fill="#000000" points="341.57,538.39,334.0656,532.0116,336.7734,536.9782,331.8068,539.6861,341.57,538.39" style="stroke:#000000;stroke-width:1;"/><text fill="#000000" font-family="Verdana" font-size="13" lengthAdjust="spacing" textLength="142.4541" x="233.87" y="497.7669">Успешная остановка</text></g><!--link STOPPING to CRASHED--><g class="link" data-entity-1="ent0004" data-entity-2="ent0006" data-link-type="dependency" data-source-line="34" id="lnk11"><path d="M214.96,454.95 C193.66,491.2 167.26,551.56 193.87,595.94 C220.97,641.14 268.3981,666.4442 313.6181,682.3042" fill="none" id="STOPPING-to-CRASHED" style="stroke:#000000;stroke-width:1;"/><polygon fill="#000000" points="319.28,684.29,312.1111,677.5368,314.5618,682.6352,309.4634,685.0859,319.28,684.29" style="stroke:#000000;stroke-width:1;"/><text fill="#000000" font-family="Verdana" font-size="13" lengthAdjust="spacing" textLength="129.6001" x="194.87" y="568.3869">Ошибка остановки</text></g><!--reverse link RUNNING to STOPPED--><g class="link" data-entity-1="ent0003" data-entity-2="ent0005" data-link-type="dependency" data-source-line="36" id="lnk13"><path d="M459.3831,318.8551 C447.4931,339.7551 436.36,363.11 429.87,390.47 C418.44,438.66 420.53,496.57 423.44,531.5" fill="none" id="RUNNING-backto-STOPPED" style="stroke:#000000;stroke-width:1;"/><polygon fill="#000000" points="462.35,313.64,454.4229,319.4848,459.8776,317.9859,461.3764,323.4406,462.35,313.64" style="stroke:#000000;stroke-width:1;"/><text fill="#000000" font-family="Verdana" font-size="13" lengthAdjust="spacing" textLength="107.999" x="430.87" y="427.1469">ResumeInstance</text></g><!--link STOPPED to CRASHED--><g class="link" data-entity-1="ent0005" data-entity-2="ent0006" data-link-type="dependency" data-source-line="37" id="lnk14"><path d="M341.65,586.83 C322.8,595.82 305.11,608.39 293.87,625.94 C280.95,646.09 291.3359,659.9889 314.0659,672.8289" fill="none" id="STOPPED-to-CRASHED" style="stroke:#000000;stroke-width:1;"/><polygon fill="#000000" points="319.29,675.78,313.4212,667.8707,314.9366,673.3208,309.4865,674.8362,319.29,675.78" style="stroke:#000000;stroke-width:1;"/><text fill="#000000" font-family="Verdana" font-size="13" lengthAdjust="spacing" textLength="107.561" x="294.87" y="639.0069">Ошибка resume</text></g><!--reverse link STOPPED to CRASHED--><g class="link" data-entity-1="ent0005" data-entity-2="ent0006" data-link-type="dependency" data-source-line="40" id="lnk18"><path d="M419.0658,602.2838 C414.3158,625.0738 409.16,649.83 404.42,672.58" fill="none" id="STOPPED-backto-CRASHED" style="stroke:#000000;stroke-width:1;"/><polygon fill="#000000" points="420.29,596.41,414.5378,604.4045,419.2698,601.3048,422.3695,606.0368,420.29,596.41" style="stroke:#000000;stroke-width:1;"/><text fill="#000000" font-family="Verdana" font-size="13" lengthAdjust="spacing" textLength="84.8491" x="415.87" y="639.0069">StopInstance</text></g><!--link RUNNING to *end*--><g class="link" data-entity-1="ent0003" data-entity-2="ent0019" data-link-type="dependency" data-source-line="42" id="lnk20"><path d="M524.26,313.93 C534.65,322.81 545.25,332.93 553.87,343.47 C599.28,398.96 610.8,416.16 631.87,484.7 C652.6,552.15 657.5,573.51 644.87,642.94 C641.38,662.12 634.7955,677.7053 629.1455,689.4253" fill="none" id="RUNNING-to-*end*" style="stroke:#000000;stroke-width:1;"/><polygon fill="#000000" points="626.54,694.83,634.0515,688.4599,628.7113,690.326,626.8451,684.9859,626.54,694.83" style="stroke:#000000;stroke-width:1;"/><text fill="#000000" font-family="Verdana" font-size="13" lengthAdjust="spacing" textLength="98.0078" x="637.87" y="497.7669">DeleteInstance</text></g><!--link STOPPED to *end*--><g class="link" data-entity-1="ent0005" data-entity-2="ent0019" data-link-type="dependency" data-source-line="43" id="lnk21"><path d="M471.12,596.41 C518.09,629.95 583.9568,676.9837 608.3568,694.4037" fill="none" id="STOPPED-to-*end*" style="stroke:#000000;stroke-width:1;"/><polygon fill="#000000" points="613.24,697.89,608.2394,689.4051,609.1707,694.9848,603.591,695.916,613.24,697.89" style="stroke:#000000;stroke-width:1;"/><text fill="#000000" font-family="Verdana" font-size="13" lengthAdjust="spacing" textLength="98.0078" x="537.87" y="639.0069">DeleteInstance</text></g><!--link CRASHED to *end*--><g class="link" data-entity-1="ent0006" data-entity-2="ent0019" data-link-type="dependency" data-source-line="44" id="lnk22"><path d="M476.53,705.05 C526.45,705.05 580.09,705.05 604.55,705.05" fill="none" id="CRASHED-to-*end*" style="stroke:#000000;stroke-width:1;"/><polygon fill="#000000" points="610.55,705.05,601.55,701.05,605.55,705.05,601.55,709.05,610.55,705.05" style="stroke:#000000;stroke-width:1;"/><text fill="#000000" font-family="Verdana" font-size="13" lengthAdjust="spacing" textLength="98.0078" x="494.45" y="698.1169">DeleteInstance</text></g><?plantuml-src XPBDRjD04CVl-nH3Ju2mk5TLf8X48GT2POSJuc0bcyR2iQtr6iIDfWV2XOeRGg8NNi1KCJKDJbvXzusOTUor7LouU7QzC_F_pSSzFgSB2e5hEnwPErCAT17mTp2buOGv0NTyZv2Gsvp2aJNkckFXQ704TWZbXPG7E0Pn9NwALAn5B3Aq2OYTs8grN8fhaSZt-BWMYNgIbusmhLp2cRsWHaZP6yeCpvzIhMg-68rAqU9C2gjYluXCdgD2h2oWkSLBgWH5LlTB4GOHqfpiD_ebABhd4xTY8p_93vgjAlZvwMbLyFv2oWDc7J1xGcUH2-4yubF_hLT_nBHRX5fYsb-OM3KWXllMS33kcyyUD4NwlKgZtoE5LKc-7YPHxIeAngThiL7OZ-eX-5zz4f0N-ImsyhF8i0FY1dh-v3LbMlk9sRMU5jh56KvEA6C-wtH8-QUL0dFlLEwwLuemQQwlT7C6FEIukNicOa9UFdm5XkgLqO7Q4bZSPdpe8PWtmU7hbzArDigMbjmWoavUo8_vsAjWvfpDEKRN8A_a2a5_u7JYAkvSNOdUbufFJzFYVg3nj9zBPxm1PzAmKOZsR27vLlJ9dyrSnwFm65T6BObSaMgF6YZxkE-8kyEwLwgXyl9m8LGbLVZ_Ed0OcnAzIgtLHGkgYzEE1UCT6YoF8dfJZ2XePEr6t3VOld6LKo5UrTsOmD-DLNjr33tgKdutOQkJblnNgZy0?></g></svg>