<svg xmlns="http://www.w3.org/2000/svg" xmlns:xlink="http://www.w3.org/1999/xlink" version="1.1" data-diagram-type="DESCRIPTION" style="width:858px;height:2080px;background:#FFFFFF;" width="858px" height="2080px" viewBox="0 0 858 2080" zoomAndPan="magnify" preserveAspectRatio="none" contentStyleType="text/css"><?plantuml 1.2026.7beta6?><defs/><g font-family="sans-serif" lengthAdjust="spacing"><!--entity Dev--><g class="entity" data-qualified-name="Dev" id="ent0001" data-source-line="25"><ellipse cx="72.979" cy="1195" rx="16" ry="16" fill="#F1F1F1" style="stroke:#181818;stroke-width:0.5;"/><path d="M72.979,1215 C76.979,1215 79.979,1215 83.979,1211 C91.979,1211 99.979,1219 99.979,1227 L99.979,1231 C99.979,1235 95.979,1239 91.979,1239 L53.979,1239 C49.979,1239 45.979,1235 45.979,1231 L45.979,1227 C45.979,1219 53.979,1211 61.979,1211 C65.979,1215 68.979,1215 72.979,1215" style="stroke:#181818;stroke-width:0.5;" fill="#F1F1F1"/><text x="6" y="1252.495" fill="#000" font-size="14" textLength="133.957">Разработчик игры</text></g><!--entity Admin--><g class="entity" data-qualified-name="Admin" id="ent0002" data-source-line="26"><ellipse cx="72.977" cy="159" rx="16" ry="16" fill="#F1F1F1" style="stroke:#181818;stroke-width:0.5;"/><path d="M72.977,179 C76.977,179 79.977,179 83.977,175 C91.977,175 99.977,183 99.977,191 L99.977,195 C99.977,199 95.977,203 91.977,203 L53.977,203 C49.977,203 45.977,199 45.977,195 L45.977,191 C45.977,183 53.977,175 61.977,175 C65.977,179 68.977,179 72.977,179" style="stroke:#181818;stroke-width:0.5;" fill="#F1F1F1"/><text x="14.93" y="216.495" fill="#000" font-size="14" textLength="116.095">Администратор</text></g><!--entity Mod--><g class="entity" data-qualified-name="Mod" id="ent0003" data-source-line="27"><ellipse cx="72.975" cy="337" rx="16" ry="16" fill="#F1F1F1" style="stroke:#181818;stroke-width:0.5;"/><path d="M72.975,357 C76.975,357 79.975,357 83.975,353 C91.975,353 99.975,361 99.975,369 L99.975,373 C99.975,377 95.975,381 91.975,381 L53.975,381 C49.975,381 45.975,377 45.975,373 L45.975,369 C45.975,361 53.975,353 61.975,353 C65.975,357 68.975,357 72.975,357" style="stroke:#181818;stroke-width:0.5;" fill="#F1F1F1"/><text x="31.97" y="394.495" fill="#000" font-size="14" textLength="82.011">Модератор</text></g><!--entity GameClient--><g class="entity" data-qualified-name="GameClient" id="ent0004" data-source-line="28"><ellipse cx="72.976" cy="22" rx="16" ry="16" fill="#F1F1F1" style="stroke:#181818;stroke-width:0.5;"/><path d="M72.976,42 C76.976,42 79.976,42 83.976,38 C91.976,38 99.976,46 99.976,54 L99.976,58 C99.976,62 95.976,66 91.976,66 L53.976,66 C49.976,66 45.976,62 45.976,58 L45.976,54 C45.976,46 53.976,38 61.976,38 C65.976,42 68.976,42 72.976,42" style="stroke:#181818;stroke-width:0.5;" fill="#F1F1F1"/><text x="25.6" y="79.495" fill="#000" font-size="14" textLength="94.753">Клиент игры</text></g><!--entity REG--><g class="entity" data-qualified-name="REG" id="ent0005" data-source-line="34"><ellipse cx="339.28" cy="1811.147" rx="99.29" ry="23.627" fill="#E8F5E9" style="stroke:#388E3C;stroke-width:0.5;"/><text x="314.808" y="1803.994" fill="#000" font-size="14" textLength="48.945" font-style="italic">«auth»</text><text x="263.203" y="1820.291" fill="#000" font-size="14" textLength="152.154">Зарегистрироваться</text></g><!--entity AUTH--><g class="entity" data-qualified-name="AUTH" id="ent0006" data-source-line="35"><ellipse cx="339.279" cy="227.15" rx="78.239" ry="23.8" fill="#E8F5E9" style="stroke:#388E3C;stroke-width:0.5;"/><text x="314.806" y="220.278" fill="#000" font-size="14" textLength="48.945" font-style="italic">«auth»</text><text x="280.329" y="236.575" fill="#000" font-size="14" textLength="117.899">Авторизоваться</text></g><!--entity RECOVER--><g class="entity" data-qualified-name="RECOVER" id="ent0007" data-source-line="36"><ellipse cx="339.284" cy="1174.146" rx="103.274" ry="23.606" fill="#E8F5E9" style="stroke:#388E3C;stroke-width:0.5;"/><text x="314.811" y="1166.96" fill="#000" font-size="14" textLength="48.945" font-style="italic">«auth»</text><text x="259.98" y="1183.257" fill="#000" font-size="14" textLength="158.607">Восстановить пароль</text></g><!--entity CREATE_MOD--><g class="entity" data-qualified-name="CREATE_MOD" id="ent0008" data-source-line="37"><ellipse cx="339.279" cy="139.149" rx="100.969" ry="29.299" fill="#E8F5E9" style="stroke:#388E3C;stroke-width:0.5;"/><text x="314.806" y="126.481" fill="#000" font-size="14" textLength="48.945" font-style="italic">«auth»</text><text x="248.217" y="142.778" fill="#000" font-size="14" textLength="182.123">Создать учётную запись</text><text x="294.742" y="159.074" fill="#000" font-size="14" textLength="89.072">модератора</text></g><!--entity LIST--><g class="entity" data-qualified-name="LIST" id="ent0009" data-source-line="43"><ellipse cx="339.282" cy="1260.146" rx="123.882" ry="27.176" fill="#E3F2FD" style="stroke:#1565C0;stroke-width:0.5;"/><text x="317.168" y="1249.175" fill="#000" font-size="14" textLength="44.229" font-style="italic">«proj»</text><text x="226.742" y="1265.472" fill="#000" font-size="14" textLength="225.08">Просмотреть список проектов</text></g><!--entity CREATE--><g class="entity" data-qualified-name="CREATE" id="ent0010" data-source-line="44"><ellipse cx="339.28" cy="1352.154" rx="138.32" ry="30.064" fill="#E3F2FD" style="stroke:#1565C0;stroke-width:0.5;"/><text x="317.166" y="1339.035" fill="#000" font-size="14" textLength="44.229" font-style="italic">«proj»</text><text x="212.795" y="1355.332" fill="#000" font-size="14" textLength="252.971">Подготовить тестовое окружение</text><text x="267.759" y="1371.629" fill="#000" font-size="14" textLength="143.042">(создать черновик)</text></g><!--entity UPLOAD--><g class="entity" data-qualified-name="UPLOAD" id="ent0011" data-source-line="45"><ellipse cx="339.275" cy="1443.145" rx="116.275" ry="25.655" fill="#E3F2FD" style="stroke:#1565C0;stroke-width:0.5;"/><text x="317.161" y="1433.723" fill="#000" font-size="14" textLength="44.229" font-style="italic">«proj»</text><text x="238.575" y="1450.02" fill="#000" font-size="14" textLength="201.4">Загрузить сборку веб-игры</text></g><!--entity META--><g class="entity" data-qualified-name="META" id="ent0012" data-source-line="46"><ellipse cx="339.277" cy="1534.148" rx="135.837" ry="29.848" fill="#E3F2FD" style="stroke:#1565C0;stroke-width:0.5;"/><text x="317.163" y="1520.472" fill="#000" font-size="14" textLength="44.229" font-style="italic">«proj»</text><text x="218.329" y="1536.768" fill="#000" font-size="14" textLength="241.896">Предоставить метаданные игры</text><text x="266.174" y="1553.065" fill="#000" font-size="14" textLength="146.207">и промо материалы</text></g><!--entity SEND--><g class="entity" data-qualified-name="SEND" id="ent0013" data-source-line="52"><ellipse cx="339.276" cy="1624.147" rx="113.486" ry="25.097" fill="#FFF3E0" style="stroke:#EF6C00;stroke-width:0.5;"/><text x="315.166" y="1615.379" fill="#000" font-size="14" textLength="48.221" font-style="italic">«mod»</text><text x="243.536" y="1631.676" fill="#000" font-size="14" textLength="191.481">Отправить на модерацию</text></g><!--entity QUEUE--><g class="entity" data-qualified-name="QUEUE" id="ent0014" data-source-line="53"><ellipse cx="339.284" cy="315.154" rx="88.704" ry="28.834" fill="#FFF3E0" style="stroke:#EF6C00;stroke-width:0.5;"/><text x="315.174" y="303.299" fill="#000" font-size="14" textLength="48.221" font-style="italic">«mod»</text><text x="258.186" y="319.596" fill="#000" font-size="14" textLength="162.196">Просмотреть очередь</text><text x="309.637" y="335.892" fill="#000" font-size="14" textLength="59.295">тикетов</text></g><!--entity MODERATE--><g class="entity" data-qualified-name="MODERATE" id="ent0015" data-source-line="54"><ellipse cx="339.276" cy="406.147" rx="125.036" ry="27.407" fill="#FFF3E0" style="stroke:#EF6C00;stroke-width:0.5;"/><text x="315.166" y="395.018" fill="#000" font-size="14" textLength="48.221" font-style="italic">«mod»</text><text x="225.194" y="411.315" fill="#000" font-size="14" textLength="228.163">Модерировать игровой проект</text></g><!--entity TEST--><g class="entity" data-qualified-name="TEST" id="ent0016" data-source-line="55"><ellipse cx="723.578" cy="406.152" rx="113.908" ry="33.122" fill="#FFF3E0" style="stroke:#EF6C00;stroke-width:0.5;"/><text x="699.467" y="389.547" fill="#000" font-size="14" textLength="48.221" font-style="italic">«mod»</text><text x="633.572" y="405.844" fill="#000" font-size="14" textLength="180.011">Проверить развернутую</text><text x="639.01" y="422.141" fill="#000" font-size="14" textLength="169.135">тестовую версию игры</text></g><!--entity VERDICT--><g class="entity" data-qualified-name="VERDICT" id="ent0017" data-source-line="56"><ellipse cx="723.576" cy="548.147" rx="120.986" ry="26.597" fill="#FFF3E0" style="stroke:#EF6C00;stroke-width:0.5;"/><text x="699.466" y="537.845" fill="#000" font-size="14" textLength="48.221" font-style="italic">«mod»</text><text x="615.562" y="554.142" fill="#000" font-size="14" textLength="216.029">Вынести вердикт модерации</text></g><!--entity REMARKS--><g class="entity" data-qualified-name="REMARKS" id="ent0018" data-source-line="57"><ellipse cx="339.278" cy="596.152" rx="123.288" ry="33.792" fill="#FFF3E0" style="stroke:#EF6C00;stroke-width:0.5;"/><text x="315.167" y="578.782" fill="#000" font-size="14" textLength="48.221" font-style="italic">«mod»</text><text x="268.693" y="595.079" fill="#000" font-size="14" textLength="141.169">Указать замечания</text><text x="243.783" y="611.376" fill="#000" font-size="14" textLength="190.989">по результатам проверки</text></g><!--entity CHAT--><g class="entity" data-qualified-name="CHAT" id="ent0019" data-source-line="58"><ellipse cx="339.281" cy="695.146" rx="123.021" ry="30.616" fill="#FFF3E0" style="stroke:#EF6C00;stroke-width:0.5;"/><text x="315.171" y="680.89" fill="#000" font-size="14" textLength="48.221" font-style="italic">«mod»</text><text x="233.04" y="697.187" fill="#000" font-size="14" textLength="212.481">Обмениваться сообщениями</text><text x="265.812" y="713.484" fill="#000" font-size="14" textLength="146.938">во встроенном чате</text></g><!--entity UPLOAD_SRV--><g class="entity" data-qualified-name="UPLOAD_SRV" id="ent0020" data-source-line="64"><ellipse cx="339.276" cy="1718.148" rx="85.496" ry="33.878" fill="#F3E5F5" style="stroke:#7B1FA2;stroke-width:0.5;"/><text x="320.043" y="1700.918" fill="#000" font-size="14" textLength="38.466" font-style="italic">«srv»</text><text x="274.273" y="1717.215" fill="#000" font-size="14" textLength="130.006">Загрузить сборку</text><text x="273.965" y="1733.512" fill="#000" font-size="14" textLength="130.621">игрового сервера</text></g><!--entity POLICY--><g class="entity" data-qualified-name="POLICY" id="ent0021" data-source-line="65"><ellipse cx="339.278" cy="1900.149" rx="119.928" ry="30.059" fill="#F3E5F5" style="stroke:#7B1FA2;stroke-width:0.5;"/><text x="320.045" y="1886.255" fill="#000" font-size="14" textLength="38.466" font-style="italic">«srv»</text><text x="233.645" y="1902.552" fill="#000" font-size="14" textLength="211.265">Настроить политики работы</text><text x="272.422" y="1918.849" fill="#000" font-size="14" textLength="133.711">игровых серверов</text></g><!--entity CMD--><g class="entity" data-qualified-name="CMD" id="ent0022" data-source-line="66"><ellipse cx="339.278" cy="498.154" rx="134.478" ry="29.574" fill="#F3E5F5" style="stroke:#7B1FA2;stroke-width:0.5;"/><text x="320.045" y="484.663" fill="#000" font-size="14" textLength="38.466" font-style="italic">«srv»</text><text x="218.333" y="500.96" fill="#000" font-size="14" textLength="241.89">Отправить команды управления</text><text x="270.129" y="517.256" fill="#000" font-size="14" textLength="138.298">игровым сервером</text></g><!--entity LOGS--><g class="entity" data-qualified-name="LOGS" id="ent0023" data-source-line="67"><ellipse cx="339.28" cy="793.152" rx="96.24" ry="31.892" fill="#F3E5F5" style="stroke:#7B1FA2;stroke-width:0.5;"/><text x="320.047" y="777.678" fill="#000" font-size="14" textLength="38.466" font-style="italic">«srv»</text><text x="260.39" y="793.975" fill="#000" font-size="14" textLength="157.78">Просмотреть журнал</text><text x="273.97" y="810.272" fill="#000" font-size="14" textLength="130.621">игрового сервера</text></g><!--entity DISCOVER--><g class="entity" data-qualified-name="DISCOVER" id="ent0024" data-source-line="68"><ellipse cx="339.282" cy="44.15" rx="92.282" ry="31.09" fill="#F3E5F5" style="stroke:#7B1FA2;stroke-width:0.5;"/><text x="320.049" y="29.516" fill="#000" font-size="14" textLength="38.466" font-style="italic">«srv»</text><text x="261.585" y="45.813" fill="#000" font-size="14" textLength="155.395">Получить доступный</text><text x="281.672" y="62.11" fill="#000" font-size="14" textLength="115.22">игровой сервер</text></g><!--entity NODE--><g class="entity" data-qualified-name="NODE" id="ent0025" data-source-line="69"><ellipse cx="339.276" cy="892.152" rx="117.166" ry="32.032" fill="#F3E5F5" style="stroke:#7B1FA2;stroke-width:0.5;"/><text x="320.043" y="876.332" fill="#000" font-size="14" textLength="38.466" font-style="italic">«srv»</text><text x="243.146" y="892.629" fill="#000" font-size="14" textLength="192.261">Подключить собственный</text><text x="257.559" y="908.926" fill="#000" font-size="14" textLength="163.434">вычислительный узел</text></g><!--entity STATUS--><g class="entity" data-qualified-name="STATUS" id="ent0026" data-source-line="75"><ellipse cx="339.284" cy="986.153" rx="122.364" ry="26.873" fill="#FFFDE7" style="stroke:#F9A825;stroke-width:0.5;"/><text x="317.293" y="975.486" fill="#000" font-size="14" textLength="43.982" font-style="italic">«stat»</text><text x="228.993" y="991.782" fill="#000" font-size="14" textLength="220.582">Узнать статус страницы игры</text></g><!--entity REPORT--><g class="entity" data-qualified-name="REPORT" id="ent0027" data-source-line="76"><ellipse cx="339.281" cy="1082.149" rx="103.331" ry="33.839" fill="#FFFDE7" style="stroke:#F9A825;stroke-width:0.5;"/><text x="317.29" y="1064.857" fill="#000" font-size="14" textLength="43.982" font-style="italic">«stat»</text><text x="265.569" y="1081.154" fill="#000" font-size="14" textLength="147.424">Получить месячный</text><text x="259.752" y="1097.451" fill="#000" font-size="14" textLength="159.059">аналитический отчет</text></g><!--link Dev to REG--><g class="link" data-entity-1="ent0001" data-entity-2="ent0005" id="lnk28" data-source-line="82" data-link-type="association"><path d="M77.9,1256.09 C90.01,1369.03 130.36,1693.47 200.96,1769.15 C214.56,1783.73 233.07,1793.31 252.1,1799.57" style="stroke:#181818;stroke-width:1;" fill="none" id="Dev-REG"/></g><!--link Dev to AUTH--><g class="link" data-entity-1="ent0001" data-entity-2="ent0006" id="lnk29" data-source-line="83" data-link-type="association"><path d="M76.74,1178.05 C89.05,1008.19 141,339.82 200.96,269.15 C216.76,250.52 240.59,240 263.98,234.11" style="stroke:#181818;stroke-width:1;" fill="none" id="Dev-AUTH"/></g><!--link Dev to RECOVER--><g class="link" data-entity-1="ent0001" data-entity-2="ent0007" id="lnk30" data-source-line="84" data-link-type="association"><path d="M140.33,1206.36 C174.89,1200.73 217.51,1193.8 254.34,1187.81" style="stroke:#181818;stroke-width:1;" fill="none" id="Dev-RECOVER"/></g><!--link Dev to LIST--><g class="link" data-entity-1="ent0001" data-entity-2="ent0009" id="lnk31" data-source-line="85" data-link-type="association"><path d="M140.33,1227.95 C170.07,1232.78 205.78,1238.59 238.64,1243.94" style="stroke:#181818;stroke-width:1;" fill="none" id="Dev-LIST"/></g><!--link Dev to CREATE--><g class="link" data-entity-1="ent0001" data-entity-2="ent0010" id="lnk32" data-source-line="86" data-link-type="association"><path d="M123.56,1256.28 C146.24,1272.9 174.03,1291.54 200.96,1305.15 C218.05,1313.79 237.1,1321.44 255.43,1327.93" style="stroke:#181818;stroke-width:1;" fill="none" id="Dev-CREATE"/></g><!--link Dev to UPLOAD--><g class="link" data-entity-1="ent0001" data-entity-2="ent0011" id="lnk33" data-source-line="87" data-link-type="association"><path d="M91.4,1256.14 C111.89,1297.66 149.7,1362.48 200.96,1400.15 C216.15,1411.32 234.33,1419.64 252.41,1425.82" style="stroke:#181818;stroke-width:1;" fill="none" id="Dev-UPLOAD"/></g><!--link Dev to META--><g class="link" data-entity-1="ent0001" data-entity-2="ent0012" id="lnk34" data-source-line="88" data-link-type="association"><path d="M82.17,1255.82 C96.4,1313.83 131.11,1423.26 200.96,1486.15 C213.34,1497.3 228.47,1505.9 244.1,1512.51" style="stroke:#181818;stroke-width:1;" fill="none" id="Dev-META"/></g><!--link Dev to SEND--><g class="link" data-entity-1="ent0001" data-entity-2="ent0013" id="lnk35" data-source-line="89" data-link-type="association"><path d="M76.4,1256.11 C83.11,1330.04 108.16,1491.29 200.96,1581.15 C213.97,1593.75 230.62,1602.66 247.82,1608.96" style="stroke:#181818;stroke-width:1;" fill="none" id="Dev-SEND"/></g><!--link Dev to CHAT--><g class="link" data-entity-1="ent0001" data-entity-2="ent0019" id="lnk36" data-source-line="90" data-link-type="association"><path d="M79.65,1178.12 C95.1,1076.67 140.87,808.16 200.96,744.15 C212.91,731.42 228.4,721.99 244.64,715.01" style="stroke:#181818;stroke-width:1;" fill="none" id="Dev-CHAT"/></g><!--link Dev to UPLOAD_SRV--><g class="link" data-entity-1="ent0001" data-entity-2="ent0020" id="lnk37" data-source-line="91" data-link-type="association"><path d="M73.76,1256.16 C75.41,1341.84 91.29,1548.27 200.96,1667.15 C216.99,1684.53 239.5,1696.02 261.66,1703.6" style="stroke:#181818;stroke-width:1;" fill="none" id="Dev-UPLOAD_SRV"/></g><!--link Dev to POLICY--><g class="link" data-entity-1="ent0001" data-entity-2="ent0021" id="lnk38" data-source-line="92" data-link-type="association"><path d="M76.61,1256.07 C85.75,1380.11 120.13,1763.25 200.96,1852.15 C212.76,1865.14 228.28,1874.61 244.62,1881.52" style="stroke:#181818;stroke-width:1;" fill="none" id="Dev-POLICY"/></g><!--link Dev to CMD--><g class="link" data-entity-1="ent0001" data-entity-2="ent0022" id="lnk39" data-source-line="93" data-link-type="association"><path d="M76.28,1178.38 C84.62,1050.04 117.38,641.62 200.96,545.15 C211.1,533.44 224.3,524.64 238.5,518.03" style="stroke:#181818;stroke-width:1;" fill="none" id="Dev-CMD"/></g><!--link Dev to LOGS--><g class="link" data-entity-1="ent0001" data-entity-2="ent0023" id="lnk40" data-source-line="94" data-link-type="association"><path d="M76.28,1178.25 C82.8,1103.12 107.56,937.08 200.96,842.15 C215.87,826.99 235.78,816.51 255.8,809.26" style="stroke:#181818;stroke-width:1;" fill="none" id="Dev-LOGS"/></g><!--link Dev to NODE--><g class="link" data-entity-1="ent0001" data-entity-2="ent0025" id="lnk41" data-source-line="95" data-link-type="association"><path d="M81.9,1178.23 C95.87,1119.22 130.33,1007.13 200.96,942.15 C214.68,929.53 231.84,920.03 249.34,912.9" style="stroke:#181818;stroke-width:1;" fill="none" id="Dev-NODE"/></g><!--link Dev to STATUS--><g class="link" data-entity-1="ent0001" data-entity-2="ent0026" id="lnk42" data-source-line="96" data-link-type="association"><path d="M91.15,1178.04 C111.54,1135.96 149.37,1069.9 200.96,1031.15 C215.8,1020 233.54,1011.54 251.25,1005.14" style="stroke:#181818;stroke-width:1;" fill="none" id="Dev-STATUS"/></g><!--link Dev to REPORT--><g class="link" data-entity-1="ent0001" data-entity-2="ent0027" id="lnk43" data-source-line="97" data-link-type="association"><path d="M127.02,1178.14 C149.18,1162.89 175.62,1146.02 200.96,1133.15 C221.02,1122.96 243.63,1113.72 264.62,1105.99" style="stroke:#181818;stroke-width:1;" fill="none" id="Dev-REPORT"/></g><!--link Mod to AUTH--><g class="link" data-entity-1="ent0003" data-entity-2="ent0006" id="lnk44" data-source-line="103" data-link-type="association"><path d="M114.47,325.37 C138.42,306.73 170.04,284.34 200.96,269.15 C224.56,257.55 252.03,248.38 276.18,241.6" style="stroke:#181818;stroke-width:1;" fill="none" id="Mod-AUTH"/></g><!--link Mod to QUEUE--><g class="link" data-entity-1="ent0003" data-entity-2="ent0014" id="lnk45" data-source-line="104" data-link-type="association"><path d="M114.41,352.42 C152.87,346.02 211.8,336.21 259.54,328.26" style="stroke:#181818;stroke-width:1;" fill="none" id="Mod-QUEUE"/></g><!--link Mod to MODERATE--><g class="link" data-entity-1="ent0003" data-entity-2="ent0015" id="lnk46" data-source-line="105" data-link-type="association"><path d="M114.41,366.34 C148.03,372.32 197.28,381.08 241.03,388.86" style="stroke:#181818;stroke-width:1;" fill="none" id="Mod-MODERATE"/></g><!--link Mod to CHAT--><g class="link" data-entity-1="ent0003" data-entity-2="ent0019" id="lnk47" data-source-line="106" data-link-type="association"><path d="M80.83,397.99 C93.64,459.34 126.91,578.73 200.96,647.15 C213.85,659.06 229.86,668.04 246.35,674.81" style="stroke:#181818;stroke-width:1;" fill="none" id="Mod-CHAT"/></g><!--link Admin to AUTH--><g class="link" data-entity-1="ent0002" data-entity-2="ent0006" id="lnk48" data-source-line="112" data-link-type="association"><path d="M131.33,191.13 C172.32,198.27 227.63,207.89 270.76,215.4" style="stroke:#181818;stroke-width:1;" fill="none" id="Admin-AUTH"/></g><!--link Admin to CREATE_MOD--><g class="link" data-entity-1="ent0002" data-entity-2="ent0008" id="lnk49" data-source-line="113" data-link-type="association"><path d="M131.33,172.04 C165.94,166.54 210.77,159.41 249.84,153.2" style="stroke:#181818;stroke-width:1;" fill="none" id="Admin-CREATE_MOD"/></g><!--link GameClient to DISCOVER--><g class="link" data-entity-1="ent0004" data-entity-2="ent0024" id="lnk50" data-source-line="119" data-link-type="association"><path d="M120.62,44.15 C155.45,44.15 204.16,44.15 246.67,44.15" style="stroke:#181818;stroke-width:1;" fill="none" id="GameClient-DISCOVER"/></g><!--link MODERATE to TEST--><g class="link" data-entity-1="ent0015" data-entity-2="ent0016" id="lnk51" data-source-line="125" data-link-type="dependency"><path d="M464.67,406.15 C511.2,406.15 558.77,406.15 604.26,406.15" style="stroke:#181818;stroke-width:1;stroke-dasharray:7,7;" fill="none" id="MODERATE-to-TEST"/><polygon points="609.26,406.15,600.26,402.15,604.26,406.15,600.26,410.15,609.26,406.15" fill="#181818" style="stroke:#181818;stroke-width:1;stroke-linejoin:miter;stroke-miterlimit:10;"/><text x="508.6" y="402.217" fill="#000" font-size="13" textLength="63.007">«include»</text></g><!--link MODERATE to VERDICT--><g class="link" data-entity-1="ent0015" data-entity-2="ent0017" id="lnk52" data-source-line="126" data-link-type="dependency"><path d="M412.18,428.81 C433.35,435.72 456.48,443.52 477.6,451.15 C542.56,474.63 611.494,502.263 660.914,522.533" style="stroke:#181818;stroke-width:1;stroke-dasharray:7,7;" fill="none" id="MODERATE-to-VERDICT"/><polygon points="665.54,524.43,658.731,517.314,660.914,522.533,655.695,524.715,665.54,524.43" fill="#181818" style="stroke:#181818;stroke-width:1;stroke-linejoin:miter;stroke-miterlimit:10;"/><text x="508.6" y="460.217" fill="#000" font-size="13" textLength="63.007">«include»</text></g><!--link REMARKS to VERDICT--><g class="link" data-entity-1="ent0018" data-entity-2="ent0017" id="lnk53" data-source-line="132" data-link-type="dependency"><path d="M452.14,582.11 C504.37,575.55 561.229,568.413 612.579,561.963" style="stroke:#181818;stroke-width:1;stroke-dasharray:7,7;" fill="none" id="REMARKS-to-VERDICT"/><polygon points="617.54,561.34,608.112,558.493,612.579,561.963,609.109,566.43,617.54,561.34" fill="#181818" style="stroke:#181818;stroke-width:1;stroke-linejoin:miter;stroke-miterlimit:10;"/><text x="509.6" y="564.217" fill="#000" font-size="13" textLength="61.185">«extend»</text></g><g class="legend" data-source-line="138"><rect x="540.184" y="1950.209" width="299.379" height="111.781" fill="#DDD" style="stroke:#000;stroke-width:1;" rx="7.5" ry="7.5"/><text x="550.058" y="1970.204" fill="#000" font-size="14" textLength="39.457" font-weight="700">Цвет</text><text x="599.263" y="1970.204" fill="#000" font-size="14" textLength="97.549" font-weight="700">Подсистема</text><rect x="545.184" y="1973.505" width="49.205" height="16.297" fill="#E8F5E9" style="stroke:none;"/><text x="545.184" y="1986.501" fill="#000" font-size="14"> </text><text x="598.839" y="1986.501" fill="#000" font-size="14" textLength="231.273">Авторизация и учётные записи</text><rect x="545.184" y="1989.802" width="49.205" height="16.297" fill="#E3F2FD" style="stroke:none;"/><text x="545.184" y="2002.797" fill="#000" font-size="14"> </text><text x="598.839" y="2002.797" fill="#000" font-size="14" textLength="172.348">Управление проектами</text><rect x="545.184" y="2006.099" width="49.205" height="16.297" fill="#FFF3E0" style="stroke:none;"/><text x="545.184" y="2019.094" fill="#000" font-size="14"> </text><text x="598.839" y="2019.094" fill="#000" font-size="14" textLength="189.656">Модерация и публикация</text><rect x="545.184" y="2022.396" width="49.205" height="16.297" fill="#F3E5F5" style="stroke:none;"/><text x="545.184" y="2035.391" fill="#000" font-size="14"> </text><text x="598.839" y="2035.391" fill="#000" font-size="14" textLength="169.559">Оркестрация серверов</text><rect x="545.184" y="2038.693" width="49.205" height="16.297" fill="#FFFDE7" style="stroke:none;"/><text x="545.184" y="2051.688" fill="#000" font-size="14"> </text><text x="598.839" y="2051.688" fill="#000" font-size="14" textLength="181.228">Аналитика и отчётность</text><line x1="545.184" y1="1957.209" x2="834.563" y2="1957.209" style="stroke:#000;stroke-width:1;"/><line x1="545.184" y1="1973.505" x2="834.563" y2="1973.505" style="stroke:#000;stroke-width:1;"/><line x1="545.184" y1="1989.802" x2="834.563" y2="1989.802" style="stroke:#000;stroke-width:1;"/><line x1="545.184" y1="2006.099" x2="834.563" y2="2006.099" style="stroke:#000;stroke-width:1;"/><line x1="545.184" y1="2022.396" x2="834.563" y2="2022.396" style="stroke:#000;stroke-width:1;"/><line x1="545.184" y1="2038.693" x2="834.563" y2="2038.693" style="stroke:#000;stroke-width:1;"/><line x1="545.184" y1="2054.99" x2="834.563" y2="2054.99" style="stroke:#000;stroke-width:1;"/><line x1="545.184" y1="1957.209" x2="545.184" y2="2054.99" style="stroke:#000;stroke-width:1;"/><line x1="594.389" y1="1957.209" x2="594.389" y2="2054.99" style="stroke:#000;stroke-width:1;"/><line x1="834.563" y1="1957.209" x2="834.563" y2="2054.99" style="stroke:#000;stroke-width:1;"/></g><?plantuml-src nLXVJnj747_tfrYb3sqVY98W0eaeacEV4rICgMsYLeeKMVYQk04xCYPjrLIAGGsgG87Ge28AJW2fVMYbc3yE3jZcA-nzXNwI_6RszdntN9A--2e5v_PsP-RsDx-PdTbfyzkAg9H4kN3lVaNa2sLpgb8e5IEp3mh5XxboRaRafYgbSgRouxGfSj-RiwKPC-AQdPirftApflWf8iIDtDI3U-NIN34VAqsNoiF3kRdA_P4HyOanb1Wmhj6AKZblbdsp_KD3Hdyi4gJWORdq7IleJrn9nFqAzEpbWQi3iKk12cPAULgHI2JwZKj-UNlII5oDNGeMdoq_Ol5-Oo0nu1Ut9mTlN4v4hmIBLt8LstpS63mdhsUlHOUk34H-ZaG-5V-kh_Rk7_GBkIetvQwiobVoxvxRYp1tn0KOgyjZwmb-zsN7chSMPLEU2FmSMa-ifGiYDolYvYDd-QeyaYtCjcNJgc8v1Arv23xXbT7yJA7ehDsI7Qnk-DOaItbdnQOyXQw6R5lpNfCtSpDcRBfW5YjXGRy6w6j0OqF-Zj6V-FzrxvsWG_G2ZDQ1KqCUEhWsyTUH1uITjOntAmnCshWfT7own5VbWO8OA1u7Y4KdixU2vDOWKoM3y7-RvPea9-GPVqz7dbhBjjrOwhQH3jAnWsN7S3HR5DQ2jMWzXy8sdfu9pDIXZ3QrVAS8wlWe8UkiFfOsebdZRZ8Lxre8nV5xyYMSJkx_GwxBRRXzNV2h6eOKZgkWyKQOJ7X9k5jLWefvq52mLXMAm0_HUSQ-QSWJ0b4UC8HZevciq9dNhOyXFoHjBWTZq62_qoke4gGOuRSWtr0yKbJUANx6zbo-NMJNsKIH9v-xV1Ta6gJcc5w0ZgRUnZwx_SHQ453IaFjzdi2Vd1XBHUE1--3uE6B24bqTghO88hmuOWwthINQZQqJb6jgk00eBQxprYbGwc2tifeqij6kpL28jmM6lG37Nkbi8-G6CMzFFWSLDy2z_o4BrO3D6Hy63hfjMHUUi7sAcMUCMiOO9q_nMVrH0cEWs0CVKYg09J28NQSP_DMaCMa4AEoU8vwSQ3lPPl1RJrGehwRYHbfHC_0RYN-ib9b9kpwsNr7kcgVynT_f18hAQBm4-slImCtThC4HwBUr1aQsRILDMnpxQT9tdeDMDbaLKcryD1QaRG-WqOVQ451wfG1OPF8thHKm_Wn4Pw2F4Nb8u1GT724jZP7wXXFRMDf8HjDVPWACrH2jBJiVk8uKmNcX8_UjNzMajK950KmVK8mTs2TOXoSfMxGeTN3WgOnnAzhTMYZHHYVx9g9j1ndT5N4x781h_5kJQo4V-1_8ZPItNEG-98zMsMdATNLNihoRITyMTithCh0DmBKVd4EzGmMN7NfDuIhxbjmMhINh5wyz7Q8JgR7Hs3S1rW8onmddNABbaRM4ki2PFzMayTeabdXjjXHRal40W-_9CcyGetH28RV_Dmp7KZSpGUgvzbcWSbWfjWyUsWQVCMzzwjzwbAkwUJIZYwOWzKT0wDHwvfZWeDhdD76W8iSsG_vOvCDVEQz1GQrc1VC7BzZWE1AUOooakdaRVtHUxQepYq-n6aP_eP7PnMoDO-wVC4Dh3v2qTSbILTaFhgmAtR4m-vw2b9xqdSb6ivFC1Ux-FaI65gVp5RpGFgehpgdWufEkIY56nvBggXhsePGs9bBfRDTAA6xQGOvxZPIpSLryfE7hlP_GJOg-Fcfaz2Cr9ztN739wI4MjVbPrfXwftAT7LC3fPofB71cSD5u9ofRwZSfcpjga8qP9GJzJK3cgcIBTRoLNXk_1Strrxvs6fjtnbFtCrPeUw59BZndtq85vx-L4xm7Ycmy78cVKxMl3HoFeSgNtG7HlRcZ_-WWCPVUZux6nIGHhxwD1DnONBuweglyw4dgXE3KzbpUHqptpkfJtBWa33-FhBAN2diEX-mV_RiqVAcOnj1AVxcz-upkS5tArzvkUDkzXS-foFYB4uoy4cWgg_URvcGiyRXAhNB6X41QFQTsmVUK-8XuBtxMTwgrN15NctLiqlivmRj4mfzNmnJkhsVENrYJYlYEY7j4HL3VkBBZbw-lPDYGNK1kSSfEWtsjPlcvdsHfta0qdqQfr_gx1PJHk3DgRTfLAP8ADSYcYjcnNsikG1SGAw7S0?></g></svg>